<?xml version="1.0" encoding="UTF-8"?>
<svg xmlns="http://www.w3.org/2000/svg" xmlns:xlink="http://www.w3.org/1999/xlink" width="184px" height="36px" viewBox="0 0 184 36" version="1.1">
<defs>
<clipPath id="clip1">
  <path d="M 0 5.902344 L 31.542969 5.902344 L 31.542969 30.199219 L 0 30.199219 Z M 0 5.902344 "/>
</clipPath>
</defs>
<g id="surface1">
<g clip-path="url(#clip1)" clip-rule="nonzero">
<path style=" stroke:none;fill-rule:nonzero;fill:rgb(8.235294%,89.411765%,61.960784%);fill-opacity:1;" d="M 28.007812 5.902344 C 22.765625 5.902344 15.730469 8.671875 11.007812 13.4375 L 7.089844 13.4375 C 4.261719 13.4375 2.640625 15.0625 1.523438 16.785156 L 0.0273438 19.085938 L 7.089844 19.085938 L 10.757812 21.914062 L 14.425781 24.738281 L 14.425781 30.179688 L 17.417969 29.027344 C 19.652344 28.167969 21.761719 26.917969 21.761719 24.738281 L 21.761719 21.722656 C 27.945312 18.082031 31.542969 12.664062 31.542969 8.625 L 31.542969 5.902344 Z M 21.761719 11.550781 C 23.113281 11.550781 24.207031 12.394531 24.207031 13.4375 C 24.207031 14.476562 23.113281 15.320312 21.761719 15.320312 C 20.414062 15.320312 19.316406 14.476562 19.316406 13.4375 C 19.316406 12.394531 20.414062 11.550781 21.761719 11.550781 Z M 5.867188 22.855469 L 4.648438 23.796875 C 2.882812 25.15625 2.199219 28.507812 2.199219 28.507812 C 2.199219 28.507812 6.355469 28.132812 8.316406 26.621094 L 9.539062 25.679688 Z M 5.867188 22.855469 "/>
</g>
<path style=" stroke:none;fill-rule:nonzero;fill:rgb(100%,100%,100%);fill-opacity:1;" d="M 52.925781 23.347656 C 52.375 23.765625 51.570312 24.144531 50.511719 24.480469 C 49.453125 24.816406 48.117188 24.988281 46.5 24.988281 C 44.207031 24.988281 42.339844 24.394531 40.902344 23.214844 C 39.464844 22.03125 38.75 20.492188 38.75 18.601562 L 38.75 18.152344 C 38.75 16.195312 39.457031 14.605469 40.871094 13.375 C 42.292969 12.148438 44.144531 11.535156 46.433594 11.535156 C 47.761719 11.535156 48.972656 11.699219 50.070312 12.027344 C 51.175781 12.351562 52.09375 12.792969 52.824219 13.347656 L 52.824219 15.976562 L 50.304688 15.976562 L 49.824219 14.230469 C 49.515625 14.027344 49.105469 13.863281 48.59375 13.742188 C 48.085938 13.617188 47.5 13.554688 46.839844 13.554688 C 45.355469 13.554688 44.203125 13.976562 43.378906 14.820312 C 42.554688 15.664062 42.144531 16.769531 42.144531 18.132812 L 42.144531 18.601562 C 42.144531 19.929688 42.546875 20.992188 43.355469 21.785156 C 44.160156 22.578125 45.328125 22.976562 46.851562 22.976562 C 47.535156 22.976562 48.085938 22.933594 48.507812 22.84375 C 48.933594 22.753906 49.269531 22.648438 49.511719 22.527344 L 49.511719 20.308594 L 47.085938 20.164062 L 47.085938 18.324219 L 52.925781 18.324219 Z M 52.925781 23.347656 "/>
<path style=" stroke:none;fill-rule:nonzero;fill:rgb(100%,100%,100%);fill-opacity:1;" d="M 55.007812 16.222656 L 55.007812 15.082031 L 58.957031 15.082031 L 59.175781 16.492188 C 59.535156 15.996094 59.980469 15.605469 60.503906 15.324219 C 61.027344 15.042969 61.625 14.902344 62.304688 14.902344 C 62.480469 14.902344 62.664062 14.914062 62.859375 14.9375 C 63.046875 14.957031 63.195312 14.976562 63.296875 15.003906 L 62.992188 16.644531 L 61.683594 16.589844 C 61.078125 16.589844 60.570312 16.703125 60.15625 16.917969 C 59.746094 17.136719 59.425781 17.445312 59.199219 17.839844 L 59.199219 23.417969 L 61.105469 23.667969 L 61.105469 24.800781 L 55.007812 24.800781 L 55.007812 23.667969 L 56.90625 23.417969 L 56.90625 16.472656 Z M 55.007812 16.222656 "/>
<path style=" stroke:none;fill-rule:nonzero;fill:rgb(100%,100%,100%);fill-opacity:1;" d="M 73.109375 24.800781 C 73.039062 24.535156 72.984375 24.300781 72.941406 24.089844 C 72.90625 23.882812 72.878906 23.671875 72.863281 23.464844 C 72.421875 23.898438 71.867188 24.261719 71.203125 24.550781 C 70.535156 24.839844 69.828125 24.988281 69.074219 24.988281 C 67.757812 24.988281 66.757812 24.742188 66.074219 24.246094 C 65.390625 23.753906 65.050781 23.058594 65.050781 22.160156 C 65.050781 21.238281 65.535156 20.527344 66.5 20.027344 C 67.46875 19.527344 68.796875 19.277344 70.484375 19.277344 L 72.851562 19.277344 L 72.851562 18.144531 C 72.851562 17.574219 72.617188 17.125 72.152344 16.792969 C 71.683594 16.460938 71.035156 16.296875 70.207031 16.296875 C 69.628906 16.296875 69.121094 16.351562 68.683594 16.464844 C 68.246094 16.578125 67.890625 16.734375 67.617188 16.933594 L 67.375 17.957031 L 65.597656 17.957031 L 65.597656 16.070312 C 66.175781 15.71875 66.871094 15.4375 67.6875 15.222656 C 68.5 15.011719 69.386719 14.902344 70.34375 14.902344 C 71.777344 14.902344 72.933594 15.183594 73.820312 15.746094 C 74.707031 16.308594 75.152344 17.113281 75.152344 18.160156 L 75.152344 22.839844 C 75.152344 22.96875 75.152344 23.089844 75.152344 23.210938 C 75.15625 23.328125 75.164062 23.449219 75.183594 23.570312 L 76.121094 23.667969 L 76.121094 24.800781 Z M 69.414062 23.503906 C 70.175781 23.503906 70.871094 23.363281 71.5 23.082031 C 72.128906 22.800781 72.578125 22.464844 72.851562 22.070312 L 72.851562 20.46875 L 70.40625 20.46875 C 69.464844 20.46875 68.71875 20.636719 68.171875 20.972656 C 67.625 21.308594 67.351562 21.714844 67.351562 22.191406 C 67.351562 22.617188 67.523438 22.941406 67.863281 23.167969 C 68.203125 23.394531 68.71875 23.503906 69.414062 23.503906 Z M 69.414062 23.503906 "/>
<path style=" stroke:none;fill-rule:nonzero;fill:rgb(100%,100%,100%);fill-opacity:1;" d="M 82.347656 16.222656 L 80.835938 16.402344 L 83.4375 21.933594 L 83.644531 22.632812 L 83.71875 22.632812 L 83.9375 21.933594 L 86.457031 16.402344 L 84.929688 16.222656 L 84.929688 15.082031 L 89.804688 15.082031 L 89.804688 16.222656 L 88.761719 16.355469 L 84.535156 24.800781 L 82.792969 24.800781 L 78.515625 16.355469 L 77.476562 16.222656 L 77.476562 15.082031 L 82.347656 15.082031 Z M 82.347656 16.222656 "/>
<path style=" stroke:none;fill-rule:nonzero;fill:rgb(100%,100%,100%);fill-opacity:1;" d="M 91.351562 23.667969 L 93.25 23.417969 L 93.25 16.472656 L 91.351562 16.222656 L 91.351562 15.082031 L 95.542969 15.082031 L 95.542969 23.417969 L 97.449219 23.667969 L 97.449219 24.800781 L 91.351562 24.800781 Z M 95.542969 12.59375 L 93.25 12.59375 L 93.25 10.789062 L 95.542969 10.789062 Z M 95.542969 12.59375 "/>
<path style=" stroke:none;fill-rule:nonzero;fill:rgb(100%,100%,100%);fill-opacity:1;" d="M 103.207031 12.738281 L 103.207031 15.082031 L 105.589844 15.082031 L 105.589844 16.394531 L 103.207031 16.394531 L 103.207031 22.292969 C 103.207031 22.75 103.328125 23.070312 103.570312 23.257812 C 103.816406 23.441406 104.140625 23.535156 104.542969 23.535156 C 104.746094 23.535156 104.972656 23.523438 105.226562 23.496094 C 105.476562 23.46875 105.6875 23.4375 105.859375 23.40625 L 106.175781 24.621094 C 105.960938 24.726562 105.640625 24.8125 105.21875 24.882812 C 104.800781 24.953125 104.382812 24.988281 103.960938 24.988281 C 103.027344 24.988281 102.285156 24.769531 101.734375 24.335938 C 101.179688 23.902344 100.90625 23.21875 100.90625 22.292969 L 100.90625 16.394531 L 98.917969 16.394531 L 98.917969 15.082031 L 100.90625 15.082031 L 100.90625 12.738281 Z M 103.207031 12.738281 "/>
<path style=" stroke:none;fill-rule:nonzero;fill:rgb(100%,100%,100%);fill-opacity:1;" d="M 119.917969 16.222656 L 118.789062 16.355469 L 113.988281 26.289062 C 113.664062 26.941406 113.203125 27.511719 112.605469 27.996094 C 112.007812 28.480469 111.207031 28.722656 110.195312 28.722656 C 110.015625 28.722656 109.785156 28.703125 109.496094 28.671875 C 109.207031 28.640625 108.988281 28.609375 108.832031 28.582031 L 109.0625 27.191406 C 109.019531 27.183594 109.15625 27.1875 109.476562 27.203125 C 109.800781 27.222656 110.007812 27.230469 110.09375 27.230469 C 110.582031 27.230469 110.976562 27.066406 111.277344 26.738281 C 111.582031 26.414062 111.847656 26.039062 112.074219 25.613281 L 112.625 24.613281 L 108.460938 16.367188 L 107.304688 16.222656 L 107.304688 15.082031 L 112.398438 15.082031 L 112.398438 16.222656 L 110.980469 16.402344 L 113.160156 21.199219 L 113.578125 22.4375 L 113.644531 22.4375 L 116.269531 16.402344 L 114.839844 16.222656 L 114.839844 15.082031 L 119.917969 15.082031 Z M 119.917969 16.222656 "/>
<path style=" stroke:none;fill-rule:nonzero;fill:rgb(100%,100%,100%);fill-opacity:1;" d="M 128.636719 11.722656 C 130.632812 11.722656 132.1875 12.019531 133.308594 12.621094 C 134.429688 13.21875 134.988281 14.113281 134.988281 15.308594 C 134.988281 15.910156 134.777344 16.449219 134.363281 16.929688 C 133.949219 17.40625 133.34375 17.761719 132.554688 18.003906 C 133.570312 18.167969 134.332031 18.527344 134.84375 19.082031 C 135.351562 19.632812 135.609375 20.269531 135.609375 20.992188 C 135.609375 22.242188 135.070312 23.191406 133.996094 23.832031 C 132.925781 24.476562 131.40625 24.800781 129.4375 24.800781 L 121.089844 24.800781 L 121.089844 23.230469 L 122.898438 22.957031 L 122.898438 13.574219 L 121.089844 13.300781 L 121.089844 11.722656 Z M 126.304688 19.015625 L 126.304688 22.789062 L 129.4375 22.789062 C 130.339844 22.789062 131.027344 22.636719 131.5 22.332031 C 131.976562 22.03125 132.214844 21.582031 132.214844 20.992188 C 132.214844 20.351562 132.007812 19.863281 131.605469 19.527344 C 131.203125 19.1875 130.566406 19.015625 129.695312 19.015625 Z M 126.304688 17.199219 L 128.75 17.199219 C 129.660156 17.199219 130.359375 17.058594 130.851562 16.769531 C 131.339844 16.480469 131.585938 16.0625 131.585938 15.511719 C 131.585938 14.90625 131.339844 14.460938 130.84375 14.171875 C 130.347656 13.886719 129.613281 13.742188 128.636719 13.742188 L 126.304688 13.742188 Z M 126.304688 17.199219 "/>
<path style=" stroke:none;fill-rule:nonzero;fill:rgb(100%,100%,100%);fill-opacity:1;" d="M 136.945312 11.925781 L 136.945312 10.789062 L 141.144531 10.789062 L 141.144531 23.417969 L 143.042969 23.667969 L 143.042969 24.800781 L 136.945312 24.800781 L 136.945312 23.667969 L 138.84375 23.417969 L 138.84375 12.179688 Z M 136.945312 11.925781 "/>
<path style=" stroke:none;fill-rule:nonzero;fill:rgb(100%,100%,100%);fill-opacity:1;" d="M 144.785156 19.847656 C 144.785156 18.414062 145.289062 17.230469 146.300781 16.300781 C 147.3125 15.371094 148.6875 14.902344 150.417969 14.902344 C 152.160156 14.902344 153.535156 15.367188 154.550781 16.296875 C 155.5625 17.222656 156.070312 18.410156 156.070312 19.847656 L 156.070312 20.046875 C 156.070312 21.496094 155.566406 22.683594 154.558594 23.605469 C 153.546875 24.527344 152.175781 24.988281 150.445312 24.988281 C 148.695312 24.988281 147.3125 24.523438 146.300781 23.597656 C 145.289062 22.675781 144.785156 21.488281 144.785156 20.046875 Z M 147.085938 20.046875 C 147.085938 21.078125 147.367188 21.929688 147.929688 22.601562 C 148.492188 23.269531 149.332031 23.605469 150.445312 23.605469 C 151.53125 23.605469 152.355469 23.269531 152.925781 22.601562 C 153.492188 21.929688 153.777344 21.078125 153.777344 20.046875 L 153.777344 19.847656 C 153.777344 18.835938 153.492188 17.988281 152.925781 17.3125 C 152.355469 16.636719 151.523438 16.296875 150.417969 16.296875 C 149.316406 16.296875 148.484375 16.636719 147.925781 17.3125 C 147.363281 17.988281 147.085938 18.835938 147.085938 19.847656 Z M 147.085938 20.046875 "/>
<path style=" stroke:none;fill-rule:nonzero;fill:rgb(100%,100%,100%);fill-opacity:1;" d="M 158.179688 20.121094 C 158.179688 18.558594 158.617188 17.300781 159.503906 16.34375 C 160.394531 15.382812 161.617188 14.902344 163.179688 14.902344 C 163.972656 14.902344 164.671875 15.023438 165.265625 15.265625 C 165.867188 15.503906 166.371094 15.847656 166.773438 16.300781 L 166.980469 15.082031 L 168.917969 15.082031 L 168.917969 24.671875 C 168.917969 25.929688 168.460938 26.921875 167.554688 27.640625 C 166.644531 28.363281 165.351562 28.722656 163.671875 28.722656 C 163.0625 28.722656 162.40625 28.65625 161.699219 28.53125 C 160.996094 28.402344 160.375 28.226562 159.839844 28.003906 L 160.429688 26.632812 C 160.859375 26.804688 161.363281 26.945312 161.945312 27.058594 C 162.527344 27.171875 163.09375 27.230469 163.648438 27.230469 C 164.671875 27.230469 165.425781 27.007812 165.90625 26.566406 C 166.382812 26.125 166.625 25.492188 166.625 24.671875 L 166.625 23.75 C 166.210938 24.15625 165.714844 24.464844 165.136719 24.671875 C 164.566406 24.882812 163.90625 24.988281 163.160156 24.988281 C 161.609375 24.988281 160.394531 24.554688 159.503906 23.691406 C 158.617188 22.832031 158.179688 21.703125 158.179688 20.308594 Z M 160.476562 20.308594 C 160.476562 21.285156 160.746094 22.070312 161.28125 22.660156 C 161.816406 23.253906 162.632812 23.550781 163.726562 23.550781 C 164.421875 23.550781 165 23.429688 165.46875 23.1875 C 165.933594 22.941406 166.320312 22.601562 166.625 22.160156 L 166.625 17.6875 C 166.328125 17.273438 165.941406 16.945312 165.46875 16.703125 C 164.992188 16.460938 164.421875 16.339844 163.75 16.339844 C 162.65625 16.339844 161.835938 16.691406 161.292969 17.398438 C 160.75 18.105469 160.476562 19.011719 160.476562 20.121094 Z M 160.476562 20.308594 "/>
<path style=" stroke:none;fill-rule:nonzero;fill:rgb(100%,100%,100%);fill-opacity:1;" d="M 181.332031 18.132812 L 179.601562 18.132812 L 179.230469 16.964844 C 178.953125 16.761719 178.597656 16.601562 178.171875 16.480469 C 177.75 16.355469 177.273438 16.296875 176.738281 16.296875 C 175.921875 16.296875 175.316406 16.433594 174.917969 16.707031 C 174.519531 16.984375 174.320312 17.316406 174.320312 17.703125 C 174.320312 18.085938 174.496094 18.390625 174.84375 18.613281 C 175.199219 18.835938 175.910156 19.03125 176.980469 19.203125 C 178.574219 19.46875 179.757812 19.828125 180.535156 20.28125 C 181.3125 20.730469 181.703125 21.335938 181.703125 22.09375 C 181.703125 22.957031 181.25 23.65625 180.34375 24.191406 C 179.441406 24.722656 178.257812 24.988281 176.796875 24.988281 C 175.839844 24.988281 174.980469 24.902344 174.21875 24.734375 C 173.453125 24.5625 172.777344 24.316406 172.179688 23.992188 L 172.167969 21.769531 L 173.894531 21.769531 L 174.320312 23.074219 C 174.589844 23.261719 174.949219 23.398438 175.40625 23.480469 C 175.859375 23.5625 176.324219 23.605469 176.796875 23.605469 C 177.613281 23.605469 178.253906 23.476562 178.714844 23.222656 C 179.175781 22.96875 179.410156 22.632812 179.410156 22.222656 C 179.410156 21.835938 179.214844 21.515625 178.832031 21.265625 C 178.445312 21.011719 177.71875 20.792969 176.644531 20.605469 C 175.113281 20.347656 173.957031 19.996094 173.179688 19.554688 C 172.402344 19.109375 172.015625 18.511719 172.015625 17.757812 C 172.015625 16.96875 172.449219 16.292969 173.324219 15.738281 C 174.199219 15.183594 175.339844 14.902344 176.738281 14.902344 C 177.695312 14.902344 178.550781 15 179.3125 15.191406 C 180.074219 15.378906 180.707031 15.648438 181.214844 15.988281 Z M 181.332031 18.132812 "/>
</g>
</svg>
