<?xml version="1.0" encoding="UTF-8"?>
<svg xmlns="http://www.w3.org/2000/svg" xmlns:xlink="http://www.w3.org/1999/xlink" width="180px" height="36px" viewBox="0 0 180 36" version="1.1">
<defs>
<clipPath id="clip1">
  <path d="M 5.101562 20.101562 L 17.101562 20.101562 L 17.101562 32.101562 L 5.101562 32.101562 Z M 5.101562 20.101562 "/>
</clipPath>
<clipPath id="clip2">
  <path d="M -0.429688 20.222656 L 21.382812 1.414062 L 37.839844 20.5 L 16.027344 39.304688 Z M -0.429688 20.222656 "/>
</clipPath>
<clipPath id="clip3">
  <path d="M -0.429688 20.222656 L 21.382812 1.414062 L 37.839844 20.5 L 16.027344 39.304688 Z M -0.429688 20.222656 "/>
</clipPath>
<clipPath id="clip4">
  <path d="M 2.398438 16.199219 L 6.300781 16.199219 L 6.300781 19.800781 L 2.398438 19.800781 Z M 2.398438 16.199219 "/>
</clipPath>
<clipPath id="clip5">
  <path d="M -0.429688 20.222656 L 21.382812 1.414062 L 37.839844 20.5 L 16.027344 39.304688 Z M -0.429688 20.222656 "/>
</clipPath>
<clipPath id="clip6">
  <path d="M -0.429688 20.222656 L 21.382812 1.414062 L 37.839844 20.5 L 16.027344 39.304688 Z M -0.429688 20.222656 "/>
</clipPath>
<clipPath id="clip7">
  <path d="M 4.199219 20.398438 L 7.800781 20.398438 L 7.800781 23.699219 L 4.199219 23.699219 Z M 4.199219 20.398438 "/>
</clipPath>
<clipPath id="clip8">
  <path d="M -0.429688 20.222656 L 21.382812 1.414062 L 37.839844 20.5 L 16.027344 39.304688 Z M -0.429688 20.222656 "/>
</clipPath>
<clipPath id="clip9">
  <path d="M -0.429688 20.222656 L 21.382812 1.414062 L 37.839844 20.5 L 16.027344 39.304688 Z M -0.429688 20.222656 "/>
</clipPath>
<clipPath id="clip10">
  <path d="M 2.101562 1.800781 L 21.898438 1.800781 L 21.898438 35.699219 L 2.101562 35.699219 Z M 2.101562 1.800781 "/>
</clipPath>
<clipPath id="clip11">
  <path d="M -0.429688 20.222656 L 21.382812 1.414062 L 37.839844 20.5 L 16.027344 39.304688 Z M -0.429688 20.222656 "/>
</clipPath>
<clipPath id="clip12">
  <path d="M -0.429688 20.222656 L 21.382812 1.414062 L 37.839844 20.5 L 16.027344 39.304688 Z M -0.429688 20.222656 "/>
</clipPath>
</defs>
<g id="surface1">
<g clip-path="url(#clip1)" clip-rule="nonzero">
<g clip-path="url(#clip2)" clip-rule="nonzero">
<g clip-path="url(#clip3)" clip-rule="nonzero">
<path style=" stroke:none;fill-rule:nonzero;fill:rgb(100%,87.058824%,34.901961%);fill-opacity:1;" d="M 17.003906 26.664062 L 10.800781 32.015625 L 5.328125 25.671875 L 11.535156 20.320312 C 11.679688 21.761719 12.253906 23.175781 13.269531 24.351562 C 14.265625 25.507812 15.578125 26.296875 17.003906 26.664062 Z M 17.003906 26.664062 "/>
</g>
</g>
</g>
<g clip-path="url(#clip4)" clip-rule="nonzero">
<g clip-path="url(#clip5)" clip-rule="nonzero">
<g clip-path="url(#clip6)" clip-rule="nonzero">
<path style=" stroke:none;fill-rule:nonzero;fill:rgb(100%,100%,100%);fill-opacity:1;" d="M 6.226562 16.921875 C 6.347656 17.058594 6.308594 17.292969 6.140625 17.433594 L 3.605469 19.621094 C 3.441406 19.765625 3.207031 19.769531 3.089844 19.628906 L 2.683594 19.160156 C 2.5625 19.023438 2.601562 18.792969 2.769531 18.648438 L 5.304688 16.460938 C 5.46875 16.320312 5.703125 16.3125 5.824219 16.453125 L 6.230469 16.921875 Z M 6.226562 16.921875 "/>
</g>
</g>
</g>
<g clip-path="url(#clip7)" clip-rule="nonzero">
<g clip-path="url(#clip8)" clip-rule="nonzero">
<g clip-path="url(#clip9)" clip-rule="nonzero">
<path style=" stroke:none;fill-rule:nonzero;fill:rgb(100%,100%,100%);fill-opacity:1;" d="M 7.585938 21.507812 C 7.660156 21.589844 7.648438 21.714844 7.566406 21.789062 L 5.445312 23.613281 C 5.363281 23.6875 5.238281 23.679688 5.164062 23.59375 L 4.382812 22.6875 C 4.3125 22.605469 4.320312 22.476562 4.40625 22.40625 L 6.523438 20.578125 C 6.605469 20.507812 6.734375 20.515625 6.804688 20.601562 Z M 7.585938 21.507812 "/>
</g>
</g>
</g>
<g clip-path="url(#clip10)" clip-rule="nonzero">
<g clip-path="url(#clip11)" clip-rule="nonzero">
<g clip-path="url(#clip12)" clip-rule="nonzero">
<path style=" stroke:none;fill-rule:nonzero;fill:rgb(100%,100%,100%);fill-opacity:1;" d="M 20.800781 1.929688 L 20.734375 5.691406 L 16.394531 9.433594 L 14.867188 8.433594 C 14.53125 8.21875 14.050781 8.25 13.75 8.511719 L 8.679688 12.882812 C 8.378906 13.144531 8.277344 13.613281 8.441406 13.976562 L 9.203125 15.636719 L 2.925781 21.046875 C 2.089844 21.769531 1.996094 23.03125 2.714844 23.863281 L 12.203125 34.867188 C 12.917969 35.699219 14.183594 35.792969 15.019531 35.070312 L 20.308594 30.507812 L 20.238281 34.746094 L 21.28125 34.761719 L 21.84375 1.945312 Z M 20.160156 23.667969 C 20.121094 23.675781 20.082031 23.6875 20.039062 23.695312 C 17.683594 24.21875 15.351562 22.734375 14.828125 20.378906 C 14.417969 18.523438 15.253906 16.683594 16.777344 15.730469 C 15.617188 16.800781 15.039062 18.441406 15.402344 20.089844 C 15.898438 22.324219 17.945312 23.808594 20.160156 23.667969 Z M 20.585938 14.386719 C 18.824219 13.800781 16.804688 14.128906 15.296875 15.429688 C 13.019531 17.394531 12.761719 20.828125 14.722656 23.101562 C 16.167969 24.777344 18.414062 25.355469 20.410156 24.757812 L 20.386719 25.914062 C 18.011719 26.492188 15.480469 25.691406 13.878906 23.832031 C 11.519531 21.09375 11.832031 16.949219 14.570312 14.585938 C 16.242188 13.144531 18.488281 12.640625 20.605469 13.230469 Z M 14.046875 13.980469 C 12.15625 15.613281 11.296875 18.007812 11.535156 20.320312 C 11.679688 21.761719 12.253906 23.175781 13.269531 24.351562 C 14.265625 25.507812 15.578125 26.296875 17.003906 26.664062 C 18.09375 26.945312 19.246094 26.976562 20.375 26.738281 L 20.328125 29.441406 L 14.496094 34.46875 C 13.996094 34.898438 13.238281 34.84375 12.808594 34.34375 L 3.320312 23.339844 C 2.886719 22.839844 2.945312 22.085938 3.445312 21.652344 L 10.179688 15.847656 L 9.167969 13.640625 C 9.148438 13.601562 9.167969 13.511719 9.203125 13.484375 L 14.269531 9.113281 C 14.300781 9.089844 14.394531 9.082031 14.429688 9.105469 L 16.460938 10.429688 L 20.71875 6.761719 L 20.621094 12.40625 C 18.300781 11.832031 15.871094 12.40625 14.046875 13.980469 Z M 14.046875 13.980469 "/>
</g>
</g>
</g>
<path style=" stroke:none;fill-rule:nonzero;fill:rgb(100%,100%,100%);fill-opacity:1;" d="M 26.953125 10.589844 L 32.296875 10.589844 C 33.789062 10.589844 34.992188 10.972656 35.914062 11.742188 C 36.835938 12.511719 37.296875 13.628906 37.296875 15.097656 C 37.296875 16.5625 36.832031 17.714844 35.898438 18.546875 C 34.960938 19.378906 33.761719 19.796875 32.296875 19.796875 L 30.289062 19.796875 L 30.289062 25.226562 L 26.953125 25.226562 Z M 30.289062 17.136719 L 31.234375 17.136719 C 31.976562 17.136719 32.585938 16.988281 33.066406 16.6875 C 33.546875 16.386719 33.789062 15.890625 33.789062 15.203125 C 33.789062 14.503906 33.546875 14.003906 33.066406 13.703125 C 32.585938 13.398438 31.976562 13.246094 31.234375 13.246094 L 30.289062 13.246094 Z M 30.289062 17.136719 "/>
<path style=" stroke:none;fill-rule:nonzero;fill:rgb(100%,100%,100%);fill-opacity:1;" d="M 39.070312 11.046875 C 39.441406 10.683594 39.878906 10.5 40.382812 10.5 C 40.894531 10.5 41.332031 10.683594 41.695312 11.046875 C 42.066406 11.414062 42.25 11.851562 42.25 12.359375 C 42.25 12.871094 42.066406 13.308594 41.695312 13.679688 C 41.332031 14.042969 40.894531 14.226562 40.382812 14.226562 C 39.878906 14.226562 39.441406 14.042969 39.070312 13.679688 C 38.707031 13.308594 38.523438 12.871094 38.523438 12.359375 C 38.523438 11.851562 38.707031 11.414062 39.070312 11.046875 Z M 38.773438 16.125 L 38.773438 25.226562 L 41.914062 25.226562 L 41.914062 16.125 Z M 38.773438 16.125 "/>
<path style=" stroke:none;fill-rule:nonzero;fill:rgb(100%,100%,100%);fill-opacity:1;" d="M 48.976562 18.429688 C 48.382812 18.429688 47.875 18.648438 47.449219 19.085938 C 47.023438 19.527344 46.8125 20.050781 46.8125 20.667969 C 46.8125 21.296875 47.023438 21.828125 47.449219 22.265625 C 47.875 22.703125 48.382812 22.921875 48.976562 22.921875 C 49.261719 22.921875 49.53125 22.886719 49.785156 22.8125 C 50.039062 22.742188 50.222656 22.671875 50.34375 22.601562 L 50.5 22.496094 L 51.566406 24.679688 C 51.484375 24.738281 51.367188 24.8125 51.21875 24.898438 C 51.070312 24.988281 50.734375 25.109375 50.207031 25.261719 C 49.679688 25.417969 49.117188 25.496094 48.515625 25.496094 C 47.175781 25.496094 46 25.023438 44.988281 24.085938 C 43.980469 23.144531 43.476562 22.015625 43.476562 20.703125 C 43.476562 19.378906 43.980469 18.242188 44.988281 17.289062 C 46 16.335938 47.175781 15.859375 48.515625 15.859375 C 49.117188 15.859375 49.671875 15.929688 50.183594 16.074219 C 50.691406 16.214844 51.050781 16.355469 51.265625 16.496094 L 51.566406 16.710938 L 50.5 18.859375 C 50.109375 18.574219 49.601562 18.429688 48.976562 18.429688 Z M 48.976562 18.429688 "/>
<path style=" stroke:none;fill-rule:nonzero;fill:rgb(100%,100%,100%);fill-opacity:1;" d="M 53.378906 16.125 L 53.378906 12.734375 L 56.519531 12.734375 L 56.519531 16.125 L 58.4375 16.125 L 58.4375 18.519531 L 56.519531 18.519531 L 56.519531 21.414062 C 56.519531 22.253906 56.753906 22.671875 57.226562 22.671875 C 57.347656 22.671875 57.46875 22.648438 57.597656 22.601562 C 57.730469 22.554688 57.828125 22.507812 57.902344 22.457031 L 58.011719 22.386719 L 58.789062 24.929688 C 58.117188 25.304688 57.347656 25.496094 56.480469 25.496094 C 55.890625 25.496094 55.382812 25.390625 54.953125 25.1875 C 54.527344 24.976562 54.207031 24.699219 53.988281 24.351562 C 53.769531 24.003906 53.613281 23.632812 53.519531 23.25 C 53.425781 22.867188 53.378906 22.457031 53.378906 22.015625 L 53.378906 18.519531 L 52.066406 18.519531 L 52.066406 16.125 Z M 53.378906 16.125 "/>
<path style=" stroke:none;fill-rule:nonzero;fill:rgb(100%,100%,100%);fill-opacity:1;" d="M 62.816406 16.125 L 62.816406 20.457031 C 62.816406 21.355469 62.953125 21.992188 63.226562 22.375 C 63.5 22.75 63.960938 22.941406 64.613281 22.941406 C 65.261719 22.941406 65.722656 22.75 65.996094 22.375 C 66.265625 21.992188 66.402344 21.355469 66.402344 20.457031 L 66.402344 16.125 L 69.542969 16.125 L 69.542969 21.214844 C 69.542969 22.730469 69.148438 23.824219 68.363281 24.492188 C 67.578125 25.160156 66.328125 25.496094 64.613281 25.496094 C 62.898438 25.496094 61.644531 25.160156 60.859375 24.492188 C 60.070312 23.824219 59.675781 22.730469 59.675781 21.214844 L 59.675781 16.125 Z M 62.816406 16.125 "/>
<path style=" stroke:none;fill-rule:nonzero;fill:rgb(100%,100%,100%);fill-opacity:1;" d="M 71.496094 25.226562 L 71.496094 16.125 L 74.636719 16.125 L 74.636719 17.4375 L 74.675781 17.4375 C 74.695312 17.390625 74.734375 17.332031 74.785156 17.257812 C 74.839844 17.1875 74.957031 17.066406 75.132812 16.890625 C 75.3125 16.710938 75.5 16.550781 75.699219 16.410156 C 75.902344 16.269531 76.164062 16.140625 76.484375 16.027344 C 76.800781 15.914062 77.125 15.859375 77.457031 15.859375 C 77.800781 15.859375 78.140625 15.90625 78.472656 16.003906 C 78.800781 16.097656 79.042969 16.191406 79.199219 16.285156 L 79.445312 16.425781 L 78.132812 19.085938 C 77.742188 18.757812 77.199219 18.589844 76.503906 18.589844 C 76.125 18.589844 75.800781 18.671875 75.527344 18.839844 C 75.253906 19.003906 75.0625 19.207031 74.949219 19.445312 C 74.839844 19.679688 74.757812 19.878906 74.707031 20.042969 C 74.660156 20.210938 74.636719 20.339844 74.636719 20.4375 L 74.636719 25.226562 Z M 71.496094 25.226562 "/>
<path style=" stroke:none;fill-rule:nonzero;fill:rgb(100%,100%,100%);fill-opacity:1;" d="M 89.542969 21.113281 L 82.945312 21.113281 C 82.945312 21.75 83.152344 22.222656 83.5625 22.53125 C 83.976562 22.839844 84.429688 22.992188 84.914062 22.992188 C 85.421875 22.992188 85.824219 22.925781 86.117188 22.789062 C 86.414062 22.652344 86.75 22.382812 87.128906 21.980469 L 89.402344 23.113281 C 88.457031 24.703125 86.882812 25.496094 84.683594 25.496094 C 83.3125 25.496094 82.132812 25.023438 81.148438 24.085938 C 80.167969 23.144531 79.675781 22.011719 79.675781 20.6875 C 79.675781 19.363281 80.167969 18.226562 81.148438 17.277344 C 82.132812 16.332031 83.3125 15.859375 84.683594 15.859375 C 86.128906 15.859375 87.300781 16.273438 88.203125 17.109375 C 89.109375 17.945312 89.5625 19.136719 89.5625 20.6875 C 89.5625 20.898438 89.554688 21.039062 89.542969 21.113281 Z M 83.035156 19.375 L 86.492188 19.375 C 86.421875 18.898438 86.234375 18.535156 85.929688 18.28125 C 85.628906 18.027344 85.242188 17.898438 84.773438 17.898438 C 84.25 17.898438 83.835938 18.035156 83.527344 18.308594 C 83.21875 18.582031 83.054688 18.9375 83.035156 19.375 Z M 83.035156 19.375 "/>
<path style=" stroke:none;fill-rule:nonzero;fill:rgb(100%,100%,100%);fill-opacity:1;" d="M 91.035156 10.589844 L 96.378906 10.589844 C 97.867188 10.589844 99.074219 10.972656 99.996094 11.742188 C 100.917969 12.511719 101.378906 13.628906 101.378906 15.097656 C 101.378906 16.5625 100.910156 17.714844 99.976562 18.546875 C 99.042969 19.378906 97.84375 19.796875 96.378906 19.796875 L 94.371094 19.796875 L 94.371094 25.226562 L 91.035156 25.226562 Z M 94.371094 17.136719 L 95.3125 17.136719 C 96.058594 17.136719 96.667969 16.988281 97.148438 16.6875 C 97.628906 16.386719 97.867188 15.890625 97.867188 15.203125 C 97.867188 14.503906 97.628906 14.003906 97.148438 13.703125 C 96.667969 13.398438 96.058594 13.246094 95.3125 13.246094 L 94.371094 13.246094 Z M 94.371094 17.136719 "/>
<path style=" stroke:none;fill-rule:nonzero;fill:rgb(100%,100%,100%);fill-opacity:1;" d="M 112.0625 21.113281 L 105.464844 21.113281 C 105.464844 21.75 105.671875 22.222656 106.082031 22.53125 C 106.496094 22.839844 106.949219 22.992188 107.433594 22.992188 C 107.941406 22.992188 108.34375 22.925781 108.636719 22.789062 C 108.933594 22.652344 109.269531 22.382812 109.648438 21.980469 L 111.921875 23.113281 C 110.976562 24.703125 109.402344 25.496094 107.203125 25.496094 C 105.832031 25.496094 104.652344 25.023438 103.667969 24.085938 C 102.6875 23.144531 102.195312 22.011719 102.195312 20.6875 C 102.195312 19.363281 102.6875 18.226562 103.667969 17.277344 C 104.652344 16.332031 105.832031 15.859375 107.203125 15.859375 C 108.648438 15.859375 109.820312 16.273438 110.722656 17.109375 C 111.628906 17.945312 112.082031 19.136719 112.082031 20.6875 C 112.082031 20.898438 112.074219 21.039062 112.0625 21.113281 Z M 105.554688 19.375 L 109.011719 19.375 C 108.941406 18.898438 108.753906 18.535156 108.449219 18.28125 C 108.148438 18.027344 107.761719 17.898438 107.292969 17.898438 C 106.769531 17.898438 106.355469 18.035156 106.046875 18.308594 C 105.738281 18.582031 105.574219 18.9375 105.554688 19.375 Z M 105.554688 19.375 "/>
<path style=" stroke:none;fill-rule:nonzero;fill:rgb(100%,100%,100%);fill-opacity:1;" d="M 113.554688 25.226562 L 113.554688 16.125 L 116.695312 16.125 L 116.695312 17.4375 L 116.730469 17.4375 C 116.753906 17.390625 116.789062 17.332031 116.84375 17.257812 C 116.898438 17.1875 117.011719 17.066406 117.191406 16.890625 C 117.371094 16.710938 117.558594 16.550781 117.757812 16.410156 C 117.960938 16.269531 118.222656 16.140625 118.542969 16.027344 C 118.859375 15.914062 119.183594 15.859375 119.515625 15.859375 C 119.859375 15.859375 120.195312 15.90625 120.527344 16.003906 C 120.859375 16.097656 121.101562 16.191406 121.253906 16.285156 L 121.503906 16.425781 L 120.191406 19.085938 C 119.800781 18.757812 119.257812 18.589844 118.558594 18.589844 C 118.179688 18.589844 117.855469 18.671875 117.585938 18.839844 C 117.3125 19.003906 117.121094 19.207031 117.007812 19.445312 C 116.894531 19.679688 116.8125 19.878906 116.765625 20.042969 C 116.71875 20.210938 116.695312 20.339844 116.695312 20.4375 L 116.695312 25.226562 Z M 113.554688 25.226562 "/>
<path style=" stroke:none;fill-rule:nonzero;fill:rgb(100%,100%,100%);fill-opacity:1;" d="M 122.925781 16.125 L 122.925781 14.1875 C 122.9375 12.828125 123.257812 11.742188 123.882812 10.925781 C 124.511719 10.109375 125.378906 9.699219 126.492188 9.699219 C 126.964844 9.699219 127.417969 9.765625 127.847656 9.90625 C 128.28125 10.039062 128.59375 10.179688 128.78125 10.320312 L 129.082031 10.515625 L 127.984375 12.734375 C 127.699219 12.570312 127.382812 12.488281 127.042969 12.488281 C 126.648438 12.488281 126.390625 12.621094 126.257812 12.886719 C 126.128906 13.152344 126.066406 13.617188 126.066406 14.277344 L 126.066406 16.125 L 128.160156 16.125 L 128.160156 18.519531 L 126.066406 18.519531 L 126.066406 25.226562 L 122.925781 25.226562 L 122.925781 18.519531 L 121.613281 18.519531 L 121.613281 16.125 Z M 122.925781 16.125 "/>
<path style=" stroke:none;fill-rule:nonzero;fill:rgb(100%,100%,100%);fill-opacity:1;" d="M 138.257812 21.113281 L 131.65625 21.113281 C 131.65625 21.75 131.863281 22.222656 132.277344 22.53125 C 132.691406 22.839844 133.140625 22.992188 133.625 22.992188 C 134.132812 22.992188 134.535156 22.925781 134.832031 22.789062 C 135.125 22.652344 135.464844 22.382812 135.84375 21.980469 L 138.117188 23.113281 C 137.167969 24.703125 135.59375 25.496094 133.394531 25.496094 C 132.023438 25.496094 130.847656 25.023438 129.863281 24.085938 C 128.878906 23.144531 128.390625 22.011719 128.390625 20.6875 C 128.390625 19.363281 128.878906 18.226562 129.863281 17.277344 C 130.847656 16.332031 132.023438 15.859375 133.394531 15.859375 C 134.839844 15.859375 136.011719 16.273438 136.917969 17.109375 C 137.820312 17.945312 138.277344 19.136719 138.277344 20.6875 C 138.277344 20.898438 138.269531 21.039062 138.257812 21.113281 Z M 131.746094 19.375 L 135.207031 19.375 C 135.132812 18.898438 134.945312 18.535156 134.644531 18.28125 C 134.34375 18.027344 133.957031 17.898438 133.484375 17.898438 C 132.960938 17.898438 132.546875 18.035156 132.238281 18.308594 C 131.929688 18.582031 131.765625 18.9375 131.746094 19.375 Z M 131.746094 19.375 "/>
<path style=" stroke:none;fill-rule:nonzero;fill:rgb(100%,100%,100%);fill-opacity:1;" d="M 144.59375 18.429688 C 144 18.429688 143.488281 18.648438 143.066406 19.085938 C 142.640625 19.527344 142.429688 20.050781 142.429688 20.667969 C 142.429688 21.296875 142.640625 21.828125 143.066406 22.265625 C 143.488281 22.703125 144 22.921875 144.59375 22.921875 C 144.878906 22.921875 145.148438 22.886719 145.398438 22.8125 C 145.652344 22.742188 145.839844 22.671875 145.957031 22.601562 L 146.117188 22.496094 L 147.179688 24.679688 C 147.097656 24.738281 146.984375 24.8125 146.835938 24.898438 C 146.6875 24.988281 146.347656 25.109375 145.820312 25.261719 C 145.296875 25.417969 144.730469 25.496094 144.128906 25.496094 C 142.792969 25.496094 141.617188 25.023438 140.605469 24.085938 C 139.59375 23.144531 139.089844 22.015625 139.089844 20.703125 C 139.089844 19.378906 139.59375 18.242188 140.605469 17.289062 C 141.617188 16.335938 142.792969 15.859375 144.128906 15.859375 C 144.730469 15.859375 145.289062 15.929688 145.796875 16.074219 C 146.308594 16.214844 146.667969 16.355469 146.882812 16.496094 L 147.179688 16.710938 L 146.117188 18.859375 C 145.726562 18.574219 145.21875 18.429688 144.59375 18.429688 Z M 144.59375 18.429688 "/>
<path style=" stroke:none;fill-rule:nonzero;fill:rgb(100%,100%,100%);fill-opacity:1;" d="M 148.996094 16.125 L 148.996094 12.734375 L 152.136719 12.734375 L 152.136719 16.125 L 154.050781 16.125 L 154.050781 18.519531 L 152.136719 18.519531 L 152.136719 21.414062 C 152.136719 22.253906 152.371094 22.671875 152.84375 22.671875 C 152.960938 22.671875 153.085938 22.648438 153.214844 22.601562 C 153.34375 22.554688 153.445312 22.507812 153.519531 22.457031 L 153.625 22.386719 L 154.402344 24.929688 C 153.730469 25.304688 152.960938 25.496094 152.097656 25.496094 C 151.507812 25.496094 150.996094 25.390625 150.570312 25.1875 C 150.144531 24.976562 149.820312 24.699219 149.605469 24.351562 C 149.386719 24.003906 149.230469 23.632812 149.136719 23.25 C 149.042969 22.867188 148.996094 22.457031 148.996094 22.015625 L 148.996094 18.519531 L 147.683594 18.519531 L 147.683594 16.125 Z M 148.996094 16.125 "/>
<path style=" stroke:none;fill-rule:nonzero;fill:rgb(100%,87.058824%,34.901961%);fill-opacity:1;" d="M 157.492188 21.429688 C 158.058594 21.429688 158.539062 21.628906 158.9375 22.027344 C 159.332031 22.421875 159.53125 22.902344 159.53125 23.46875 C 159.53125 24.027344 159.332031 24.503906 158.9375 24.898438 C 158.539062 25.296875 158.058594 25.496094 157.492188 25.496094 C 156.9375 25.496094 156.460938 25.296875 156.0625 24.898438 C 155.664062 24.503906 155.46875 24.027344 155.46875 23.46875 C 155.46875 22.902344 155.664062 22.421875 156.0625 22.027344 C 156.460938 21.628906 156.9375 21.429688 157.492188 21.429688 Z M 157.492188 21.429688 "/>
<path style=" stroke:none;fill-rule:nonzero;fill:rgb(100%,100%,100%);fill-opacity:1;" d="M 162.28125 24.101562 C 161.429688 23.171875 161.003906 22.035156 161.003906 20.6875 C 161.003906 19.335938 161.429688 18.195312 162.28125 17.257812 C 163.132812 16.324219 164.214844 15.859375 165.53125 15.859375 C 166.738281 15.859375 167.730469 16.234375 168.515625 16.992188 L 168.515625 16.125 L 171.65625 16.125 L 171.65625 25.226562 L 168.546875 25.226562 L 168.546875 24.195312 L 168.515625 24.195312 C 167.730469 25.0625 166.738281 25.496094 165.53125 25.496094 C 164.214844 25.496094 163.132812 25.03125 162.28125 24.101562 Z M 164.953125 19.144531 C 164.542969 19.542969 164.34375 20.058594 164.34375 20.6875 C 164.34375 21.3125 164.535156 21.824219 164.929688 22.21875 C 165.316406 22.617188 165.832031 22.8125 166.46875 22.8125 C 167.085938 22.8125 167.589844 22.613281 167.988281 22.214844 C 168.386719 21.8125 168.585938 21.300781 168.585938 20.6875 C 168.585938 20.058594 168.378906 19.542969 167.96875 19.144531 C 167.558594 18.742188 167.0625 18.539062 166.46875 18.539062 C 165.867188 18.539062 165.359375 18.742188 164.953125 19.144531 Z M 164.953125 19.144531 "/>
<path style=" stroke:none;fill-rule:nonzero;fill:rgb(100%,100%,100%);fill-opacity:1;" d="M 174.082031 11.046875 C 174.449219 10.683594 174.886719 10.5 175.394531 10.5 C 175.902344 10.5 176.339844 10.683594 176.707031 11.046875 C 177.074219 11.414062 177.257812 11.851562 177.257812 12.359375 C 177.257812 12.871094 177.074219 13.308594 176.707031 13.679688 C 176.339844 14.042969 175.902344 14.226562 175.394531 14.226562 C 174.886719 14.226562 174.449219 14.042969 174.082031 13.679688 C 173.714844 13.308594 173.53125 12.871094 173.53125 12.359375 C 173.53125 11.851562 173.714844 11.414062 174.082031 11.046875 Z M 173.78125 16.125 L 173.78125 25.226562 L 176.921875 25.226562 L 176.921875 16.125 Z M 173.78125 16.125 "/>
</g>
</svg>
